<?xml version="1.0" encoding="UTF-8"?>
<svg width="11px" height="13px" viewBox="0 0 11 13" version="1.1" xmlns="http://www.w3.org/2000/svg" xmlns:xlink="http://www.w3.org/1999/xlink">
    <!-- Generator: Sketch 49.3 (51167) - http://www.bohemiancoding.com/sketch -->
    <title>refresh-ccw</title>
    <desc>Created with Sketch.</desc>
    <defs>
        <path d="M7.58333333,1.84936568 L2.16666667,7.26603235 L2.16666667,8.66666667 L3.56730099,8.66666667 L8.98396765,3.25 L7.58333333,1.84936568 Z M7.96634951,0.70031716 L10.1330162,2.86698383 C10.3445502,3.07851782 10.3445502,3.42148218 10.1330162,3.63301617 L4.17468284,9.59134951 C4.07310063,9.69293171 3.9353256,9.75 3.79166667,9.75 L1.625,9.75 C1.32584576,9.75 1.08333333,9.50748757 1.08333333,9.20833333 L1.08333333,7.04166667 C1.08333333,6.89800773 1.14040162,6.7602327 1.24198383,6.65865049 L7.20031716,0.70031716 C7.41185115,0.488783169 7.75481552,0.488783169 7.96634951,0.70031716 Z M1.625,12.4583333 C1.32584576,12.4583333 1.08333333,12.2158209 1.08333333,11.9166667 C1.08333333,11.6175124 1.32584576,11.375 1.625,11.375 L11.375,11.375 C11.6741542,11.375 11.9166667,11.6175124 11.9166667,11.9166667 C11.9166667,12.2158209 11.6741542,12.4583333 11.375,12.4583333 L1.625,12.4583333 Z" id="path-1"></path>
    </defs>
    <g id="Device-Summary" stroke="none" stroke-width="1" fill="none" fill-rule="evenodd" opacity="0.913213315">
        <g id="View" transform="translate(-1003.000000, -497.000000)">
            <g id="LwM2M-Server" transform="translate(342.000000, 275.000000)">
                <g id="_actions" transform="translate(654.000000, 216.000000)">
                    <g id="edit-3" transform="translate(6.000000, 6.000000)">
                        <mask id="mask-2" fill="white">
                            <use xlink:href="#path-1"></use>
                        </mask>
                        <use id="Combined-Shape" fill="#000000" fill-rule="nonzero" xlink:href="#path-1"></use>
                        <g id="COLOR/-black" mask="url(#mask-2)" fill="#000000" fill-rule="evenodd">
                            <rect id="Rectangle" x="0" y="0" width="13" height="13"></rect>
                        </g>
                    </g>
                </g>
            </g>
        </g>
    </g>
</svg>