<?xml version="1.0" encoding="UTF-8"?>
<svg width="12px" height="8px" viewBox="0 0 12 8" version="1.1" xmlns="http://www.w3.org/2000/svg">
    <!-- Generator: Sketch 49.3 (51167) - http://www.bohemiancoding.com/sketch -->
    <title>Combined Shape</title>
    <desc>Created with Sketch.</desc>
    <defs></defs>
    <g id="Device-Summary" stroke="none" stroke-width="1" fill="none" fill-rule="evenodd">
        <g id="View" transform="translate(-535.000000, -360.000000)" fill="#000000">
            <path d="M536,362 C535.447715,362 535,361.552285 535,361 C535,360.447715 535.447715,360 536,360 C536.552285,360 537,360.447715 537,361 C537,361.552285 536.552285,362 536,362 Z M539,360 L546,360 C546.552285,360 547,360.447715 547,361 C547,361.552285 546.552285,362 546,362 L539,362 C538.447715,362 538,361.552285 538,361 C538,360.447715 538.447715,360 539,360 Z M539,363 L546,363 C546.552285,363 547,363.447715 547,364 C547,364.552285 546.552285,365 546,365 L539,365 C538.447715,365 538,364.552285 538,364 C538,363.447715 538.447715,363 539,363 Z M539,366 L546,366 C546.552285,366 547,366.447715 547,367 C547,367.552285 546.552285,368 546,368 L539,368 C538.447715,368 538,367.552285 538,367 C538,366.447715 538.447715,366 539,366 Z M536,365 C535.447715,365 535,364.552285 535,364 C535,363.447715 535.447715,363 536,363 C536.552285,363 537,363.447715 537,364 C537,364.552285 536.552285,365 536,365 Z M536,368 C535.447715,368 535,367.552285 535,367 C535,366.447715 535.447715,366 536,366 C536.552285,366 537,366.447715 537,367 C537,367.552285 536.552285,368 536,368 Z" id="Combined-Shape"></path>
        </g>
    </g>
</svg>