<?xml version="1.0" encoding="UTF-8"?>
<svg width="11px" height="11px" viewBox="0 0 11 11" version="1.1" xmlns="http://www.w3.org/2000/svg" xmlns:xlink="http://www.w3.org/1999/xlink">
    <!-- Generator: Sketch 49.3 (51167) - http://www.bohemiancoding.com/sketch -->
    <title>plus</title>
    <desc>Created with Sketch.</desc>
    <defs>
        <path d="M8.125,6.875 L11.875,6.875 C12.220178,6.875 12.5,7.15482203 12.5,7.5 C12.5,7.84517797 12.220178,8.125 11.875,8.125 L8.125,8.125 L8.125,11.875 C8.125,12.220178 7.84517797,12.5 7.5,12.5 C7.15482203,12.5 6.875,12.220178 6.875,11.875 L6.875,8.125 L3.125,8.125 C2.77982203,8.125 2.5,7.84517797 2.5,7.5 C2.5,7.15482203 2.77982203,6.875 3.125,6.875 L6.875,6.875 L6.875,3.125 C6.875,2.77982203 7.15482203,2.5 7.5,2.5 C7.84517797,2.5 8.125,2.77982203 8.125,3.125 L8.125,6.875 Z" id="path-1"></path>
    </defs>
    <g id="Device-Summary" stroke="none" stroke-width="1" fill="none" fill-rule="evenodd">
        <g id="View" transform="translate(-569.000000, -359.000000)">
            <g id="plus" transform="translate(567.000000, 357.000000)">
                <mask id="mask-2" fill="white">
                    <use xlink:href="#path-1"></use>
                </mask>
                <use id="Combined-Shape" fill="#000000" fill-rule="nonzero" xlink:href="#path-1"></use>
                <g id="color/black" mask="url(#mask-2)" fill="#000000" fill-rule="evenodd">
                    <g transform="translate(-14.375000, -15.625000)" id="Rectangle">
                        <rect x="0" y="0" width="50" height="50"></rect>
                    </g>
                </g>
            </g>
        </g>
    </g>
</svg>