<?xml version="1.0" encoding="UTF-8"?>
<svg width="13px" height="13px" viewBox="0 0 13 13" version="1.1" xmlns="http://www.w3.org/2000/svg" xmlns:xlink="http://www.w3.org/1999/xlink">
    <!-- Generator: Sketch 49.3 (51167) - http://www.bohemiancoding.com/sketch -->
    <title>refresh-ccw</title>
    <desc>Created with Sketch.</desc>
    <defs>
        <path d="M12.421735,7.92887859 C12.4463364,7.99229678 12.4584975,8.05931301 12.4583333,8.12623337 L12.4583333,11.375 C12.4583333,11.6741542 12.2158209,11.9166667 11.9166667,11.9166667 C11.6175124,11.9166667 11.375,11.6741542 11.375,11.375 L11.375,9.3771264 L9.78644547,10.8695874 C8.4716645,12.185027 6.57394462,12.7339443 4.75995137,12.3235055 C2.94595812,11.9130668 1.46938349,10.6006731 0.848945473,8.84736584 C0.749148745,8.56534843 0.896867869,8.25582695 1.17888537,8.15603025 C1.46090288,8.05623356 1.77042447,8.20395263 1.87022119,8.48597004 C2.36657161,9.88861581 3.54783131,10.9385308 4.99902591,11.2668818 C6.45022051,11.5952328 7.96839642,11.156099 9.03241268,10.0919262 L10.5492032,8.66666667 L8.66666667,8.66666667 C8.36751243,8.66666667 8.125,8.42415424 8.125,8.125 C8.125,7.82584576 8.36751243,7.58333333 8.66666667,7.58333333 L11.9166667,7.58333333 C12.144062,7.58333333 12.3387301,7.72345552 12.4190371,7.92206609 L12.421735,7.92887859 Z M0.0365999844,5.06994248 C0.0119986111,5.00652428 -0.000162529943,4.93950806 1.63999165e-06,4.8725877 L1.63999167e-06,1.62382106 C1.63999167e-06,1.32466682 0.242514067,1.0821544 0.541668307,1.0821544 C0.840822546,1.0821544 1.08333497,1.32466682 1.08333497,1.62382106 L1.08333497,3.62169466 L2.6718895,2.12923368 C3.98667047,0.813794054 5.88439036,0.264876794 7.69838361,0.675315532 C9.51237686,1.08575427 10.9889515,2.39814801 11.6093895,4.15145522 C11.7091862,4.43347263 11.5614671,4.74299412 11.2794496,4.84279081 C10.9974321,4.9425875 10.6879105,4.79486843 10.5881138,4.51285102 C10.0917634,3.11020525 8.91050366,2.06029026 7.45930906,1.73193927 C6.00811446,1.40358828 4.48993856,1.84272209 3.42592229,2.90689484 L1.9091318,4.3321544 L3.79166831,4.3321544 C4.09082255,4.3321544 4.33333497,4.57466682 4.33333497,4.87382106 C4.33333497,5.1729753 4.09082255,5.41548773 3.79166831,5.41548773 L0.541668307,5.41548773 C0.314272935,5.41548773 0.119604854,5.27536554 0.0392978833,5.07675498 L0.0365999844,5.06994248 Z" id="path-1"></path>
    </defs>
    <g id="Device-Summary" stroke="none" stroke-width="1" fill="none" fill-rule="evenodd">
        <g id="View" transform="translate(-1030.000000, -462.000000)">
            <g id="LwM2M-Server" transform="translate(342.000000, 275.000000)">
                <g id="_actions" transform="translate(682.000000, 181.000000)">
                    <g id="refresh-ccw" transform="translate(6.000000, 6.000000)">
                        <mask id="mask-2" fill="white">
                            <use xlink:href="#path-1"></use>
                        </mask>
                        <use id="Combined-Shape" fill="#000000" fill-rule="evenodd" xlink:href="#path-1"></use>
                        <g id="COLOR/-black" mask="url(#mask-2)" fill="#000000" fill-rule="evenodd">
                            <rect id="Rectangle" x="0" y="0" width="13" height="13"></rect>
                        </g>
                    </g>
                </g>
            </g>
        </g>
    </g>
</svg>