<svg class="logo" version="1.1" xmlns="http://www.w3.org/2000/svg" xmlns:xlink="http://www.w3.org/1999/xlink"
                         viewBox="0 0 221 48">
                        <g>
                            <path style="fill: #FFD600;" d="M47.5,16.4c-3-7.2-10.1-12.3-18.3-12.3C18.2,4.1,9.3,13,9.3,23.9c0,1.8,0.2,3.5,0.7,5.1h2.2
                                    c0.6,0,1.4-0.7,1.6-1.2l3.9-9.8c0.5-1.2,1.7-2.1,3-2.1c1.3,0,2.5,0.8,3,2.1l6.2,15.6c0.3,0.7,1.1,1.2,1.7,1.2h1.3
                                    c0.3,0,0.6,0.2,0.8,0.5l0.5,1.4c0.1,0.3,0,0.5-0.3,0.5h-4.2c-1.8,0-3.9-1.5-4.6-3.3L20.7,23c-0.4-1.1-0.8-2.2-1.1-3.3
                                    c-0.3,1.1-0.6,2.2-1.1,3.3l-2.1,5.4c-0.7,1.7-2.6,3.1-4.4,3.1h-1.3c3,7.2,10.1,12.3,18.3,12.3c10.9,0,19.8-8.9,19.8-19.8
                                    c0-1.8-0.2-3.5-0.7-5.1h-2.2c-0.6,0-1.4,0.7-1.6,1.2l-3.9,9.8c-0.5,1.2-1.7,2.1-3,2.1c-1.3,0-2.5-0.8-3-2.1l-6.2-15.6
                                    c-0.3-0.7-1.1-1.2-1.7-1.2h-1.3c-0.3,0-0.6-0.2-0.8-0.5L24,11c-0.1-0.3,0-0.5,0.3-0.5h4.2c1.8,0,3.9,1.5,4.6,3.3l4.4,11.1
                                    c0.4,1.1,0.8,2.2,1.1,3.3c0.3-1.1,0.6-2.2,1.1-3.3l2.1-5.4c0.7-1.7,2.6-3.1,4.4-3.1H47.5z"/>
                            <path style="fill:#fff;" d="M195,15.6l1.7,4.3c0.4,1,0.6,1.9,0.9,2.9c0.3-1,0.5-1.9,0.9-2.9l1.7-4.3c0.4-1,1.4-1.7,2.5-1.7
                                    c1.1,0,2.1,0.7,2.5,1.7l5.4,13.6c1,2.5-0.2,4.6-2.7,4.6c-2,0-2.2,0-4.2,0c-0.3,0-0.4-0.2-0.3-0.5l0.5-1.3c0.1-0.3,0.4-0.5,0.7-0.5
                                    c1.4,0,0.9,0,2.4,0l-4.2-10.6c-0.4-1-0.6-1.9-0.9-2.9c-0.3,1-0.5,1.9-0.9,2.9l-4.9,12.4c-0.1,0.3-0.4,0.5-0.7,0.5h-1.8
                                    c-0.3,0-0.4-0.2-0.3-0.5c0.7-1.8,1.4-3.6,2.1-5.4l-2.8-7c-0.4-1-0.6-1.9-0.9-2.9c-0.3,1-0.5,1.9-0.9,2.9l-3.9,10
                                    c-0.6,1.6-2.5,2.9-4.1,2.9h-2.1c-0.3,0-0.4-0.2-0.3-0.5l0.5-1.3c0.1-0.3,0.4-0.5,0.7-0.5h1.2c0.6,0,1.3-0.6,1.5-1.1l5.8-14.8
                                    c0.4-1,1.4-1.7,2.5-1.7C193.6,13.9,194.6,14.6,195,15.6L195,15.6z M135.2,17.8l5.4,13.7h-10.2l1.9-4.9c0.1-0.3,0-0.5-0.3-0.5h-1.8
                                    c-0.3,0-0.6,0.2-0.7,0.5l-1.6,4.1c-0.7,1.7,0.1,3.1,1.8,3.1h11.8c2.5,0,3.8-2.1,2.7-4.6l-5-12.8h2.3c0.3,0,0.6-0.2,0.7-0.5l0.5-1.3
                                    c0.1-0.3,0-0.5-0.3-0.5h-5C135.3,14.1,134.3,15.7,135.2,17.8L135.2,17.8z M67.6,15.6l5.8,14.7c0.3,0.6,1,1.2,1.6,1.2h0.4
                                    c0.3,0,0.6,0.2,0.7,0.5l0.5,1.3c0.1,0.3,0,0.5-0.3,0.5h-3c-1.7,0-3.6-1.4-4.3-3.1c-1.3-3.3-2.6-6.6-3.9-9.8c-0.4-1-0.6-1.9-0.9-2.9
                                    c-0.3,1-0.5,1.9-0.9,2.9c-1.4,3.5-2.8,7.1-4.2,10.6h3.9c0.3,0,0.6,0.2,0.7,0.5l0.5,1.3c0.1,0.3,0,0.5-0.3,0.5h-5.2
                                    c-1.9,0-2.8-1.5-2-3.4l5.9-14.8c0.4-1,1.4-1.7,2.5-1.7C66.3,13.9,67.2,14.6,67.6,15.6L67.6,15.6z M164,14.1c0.3,0,0.4,0.2,0.3,0.5
                                    l-0.5,1.3c-0.1,0.3-0.4,0.5-0.7,0.5h-5.2L152,31.5h6.1c0.3,0,0.4,0.2,0.3,0.5l-0.5,1.3c-0.1,0.3-0.4,0.5-0.7,0.5h-6.1
                                    c-2.5,0-3.8-2.1-2.7-4.6l5-12.8H147c-0.3,0-0.4-0.2-0.3-0.5l0.5-1.3c0.1-0.3,0.4-0.5,0.7-0.5H164L164,14.1z M99,17.8l5.4,13.7H94.2
                                    l1.9-4.9c0.1-0.3,0-0.5-0.3-0.5H94c-0.3,0-0.6,0.2-0.7,0.5l-1.6,4.1c-0.7,1.7,0.1,3.1,1.8,3.1h11.8c2.5,0,3.8-2.1,2.7-4.6l-5-12.8
                                    h2.3c0.3,0,0.6-0.2,0.7-0.5l0.5-1.3c0.1-0.3,0-0.5-0.3-0.5h-5C99.2,14.1,98.2,15.7,99,17.8L99,17.8z M117.4,33.2
                                    c-0.9-0.5-1.7-1.4-2.1-2.3L110,17.5c-0.7-1.9,0.1-3.4,2-3.4h3.2c0.3,0,0.4,0.2,0.3,0.5l-0.5,1.3c-0.1,0.3-0.4,0.5-0.7,0.5h-1.9
                                    l5.4,13.6c0.1,0.3,0.3,0.6,0.6,0.8l5.4-13.7c0.7-1.7,2.6-3.1,4.3-3.1h3c0.3,0,0.4,0.2,0.3,0.5l-0.5,1.3c-0.1,0.3-0.4,0.5-0.7,0.5
                                    h-0.4c-0.6,0-1.4,0.5-1.6,1.2l-7.5,19.1c-0.7,1.7-2.6,3.1-4.3,3.1h-4c-0.3,0-0.4-0.2-0.3-0.5l0.5-1.3c0.1-0.3,0.4-0.5,0.7-0.5h1.4
                                    c0.6,0,1.4-0.5,1.6-1.2L117.4,33.2L117.4,33.2z M81.2,32.3c0.4,1,1.4,1.7,2.5,1.7c1.1,0,2.1-0.7,2.5-1.7c2-5,3.9-9.8,5.8-14.8
                                    c0.2-0.5,0.9-1.1,1.5-1.1h1.2c0.3,0,0.6-0.2,0.7-0.5l0.5-1.3c0.1-0.3,0-0.5-0.3-0.5h-2.1c-1.6,0-3.5,1.3-4.1,2.9
                                    c-1.3,3.3-2.6,6.7-3.9,10c-0.4,1-0.6,1.9-0.9,2.9c-0.3-1-0.5-1.9-0.9-2.9c-1.3-3.3-2.6-6.6-3.9-9.8c-0.7-1.7-2.6-3.1-4.3-3.1h-3
                                    c-0.3,0-0.4,0.2-0.3,0.5l0.5,1.3c0.1,0.3,0.4,0.5,0.7,0.5h0.4c0.6,0,1.4,0.5,1.6,1.2C77.3,22.5,79.2,27.3,81.2,32.3L81.2,32.3z
                                     M170.9,27.2h6.1c1.7,0,3.6-1.4,4.3-3.1l2.2-5.5c1-2.5-0.2-4.6-2.7-4.6c-3.6,0-5.7,0-9.2,0c-1.7,0-3.6,1.4-4.3,3.1l-4.7,12
                                    c-1,2.5,0.2,4.6,2.7,4.6h9c0.3,0,0.6-0.2,0.7-0.5l0.5-1.3c0.1-0.3,0-0.5-0.3-0.5h-9l5.5-13.9c0.3-0.6,1-1.2,1.6-1.2
                                    c2.7,0,3.9,0,6.6,0l-2.9,7.4c-0.3,0.6-1,1.2-1.6,1.2h-3.5c-0.3,0-0.6,0.2-0.7,0.5l-0.5,1.3C170.5,27,170.6,27.2,170.9,27.2z"/>
                        </g>
                    </svg>