<?xml version="1.0" standalone="no"?>
<!DOCTYPE svg PUBLIC "-//W3C//DTD SVG 20010904//EN"
 "http://www.w3.org/TR/2001/REC-SVG-20010904/DTD/svg10.dtd">
<svg version="1.0" xmlns="http://www.w3.org/2000/svg"
 width="999.000000pt" height="999.000000pt" viewBox="0 0 999.000000 999.000000"
 preserveAspectRatio="xMidYMid meet">
<metadata>
Created by potrace 1.11, written by Peter Selinger 2001-2013
</metadata>
<g transform="translate(0.000000,999.000000) scale(0.100000,-0.100000)"
fill="#000000" stroke="none">
<path d="M4807 9984 c-1 -1 -58 -5 -127 -8 -69 -4 -138 -9 -155 -11 -16 -2
-57 -6 -90 -9 -33 -3 -69 -8 -80 -10 -11 -2 -42 -7 -70 -10 -120 -16 -294 -50
-515 -101 -8 -2 -58 -15 -110 -30 -484 -136 -918 -330 -1340 -598 -201 -128
-402 -279 -611 -457 -61 -52 -370 -358 -435 -431 -195 -218 -406 -507 -569
-780 -150 -251 -322 -617 -405 -859 -12 -36 -26 -74 -31 -85 -16 -39 -112
-372 -124 -430 -2 -11 -11 -51 -20 -90 -10 -38 -19 -83 -22 -100 -2 -16 -13
-75 -23 -130 -10 -55 -21 -125 -25 -155 -3 -30 -8 -66 -10 -80 -2 -14 -6 -59
-10 -100 -3 -41 -8 -86 -10 -100 -14 -76 -21 -550 -10 -700 18 -251 33 -380
72 -595 29 -166 23 -133 57 -280 l28 -121 302 2 c330 1 342 3 445 68 120 77
181 158 250 336 29 74 57 144 62 155 4 11 31 79 59 150 28 72 59 150 69 175
11 25 35 86 54 135 73 187 248 631 256 650 13 27 135 339 136 345 1 3 9 22 18
44 9 21 17 40 17 42 0 4 247 629 266 674 108 249 333 434 589 484 17 4 41 9
55 11 44 9 189 6 253 -6 246 -44 458 -198 579 -419 14 -25 53 -117 87 -205 35
-88 67 -169 72 -180 5 -11 89 -225 188 -475 98 -250 231 -588 295 -750 181
-458 265 -671 391 -990 63 -162 119 -304 124 -315 5 -11 25 -60 45 -110 425
-1086 421 -1077 499 -1158 18 -19 50 -47 72 -63 115 -83 165 -95 417 -96 216
0 253 -6 306 -49 44 -35 59 -65 139 -269 87 -221 90 -254 28 -288 -25 -13
-1130 -14 -1220 -1 -95 14 -224 54 -325 101 -295 137 -560 396 -680 662 -12
27 -60 146 -107 265 -47 119 -118 299 -158 401 -40 102 -98 250 -129 330 -32
80 -61 154 -66 165 -5 11 -19 45 -30 75 -11 30 -25 64 -29 75 -5 11 -30 74
-56 140 -46 116 -422 1071 -530 1345 -83 212 -172 459 -191 535 -2 6 -23 82
-48 170 -25 88 -46 169 -46 180 -1 33 -15 -1 -35 -80 -19 -80 -24 -98 -96
-325 -61 -197 -101 -304 -250 -680 -62 -157 -114 -287 -115 -290 0 -3 -4 -14
-9 -25 -5 -11 -48 -121 -97 -245 -49 -124 -93 -234 -98 -245 -5 -11 -33 -83
-63 -160 -30 -77 -65 -162 -77 -190 -23 -48 -106 -185 -119 -195 -4 -3 -17
-18 -29 -34 -146 -190 -397 -363 -637 -440 -119 -38 -189 -46 -412 -46 -216 0
-220 -1 -193 -48 5 -9 30 -64 55 -122 127 -291 345 -658 558 -939 186 -246
480 -563 694 -749 672 -584 1456 -971 2311 -1141 143 -29 187 -36 268 -46 22
-3 50 -7 64 -10 14 -2 52 -7 85 -10 33 -3 71 -8 85 -10 62 -9 282 -18 460 -19
263 0 503 14 673 40 20 3 47 7 60 9 68 8 188 29 293 51 166 34 167 34 186 40
9 3 25 6 35 8 73 15 352 102 498 156 589 219 1107 528 1585 948 94 82 355 344
435 436 291 335 508 655 705 1041 84 165 170 355 209 465 11 30 34 93 51 140
61 166 149 488 185 675 5 22 9 45 11 50 1 6 5 28 8 50 4 23 8 50 10 60 14 75
20 115 31 225 4 36 9 73 11 83 19 103 26 764 11 912 -4 39 -10 93 -13 120 -2
28 -6 66 -9 85 -3 19 -7 55 -10 80 -18 148 -91 513 -115 575 -8 20 -15 21
-311 20 l-304 -1 -77 -37 c-88 -43 -222 -165 -252 -230 -10 -21 -91 -223 -180
-450 -89 -227 -166 -421 -171 -432 -5 -11 -9 -22 -10 -25 0 -3 -38 -99 -84
-215 -95 -237 -279 -705 -442 -1118 -120 -305 -134 -336 -189 -417 -107 -156
-286 -279 -478 -329 -96 -25 -311 -23 -407 3 -160 45 -336 163 -434 292 -71
94 -95 149 -280 619 -89 226 -166 419 -171 430 -11 25 -225 569 -256 652 -12
34 -29 77 -37 95 -9 18 -144 362 -302 763 -158 402 -293 744 -300 760 -7 17
-54 134 -103 260 -256 652 -235 604 -291 678 -62 83 -176 159 -281 187 -27 7
-131 13 -260 14 -180 1 -220 4 -245 19 -67 37 -98 78 -135 172 -12 33 -44 115
-71 182 -62 155 -64 200 -10 227 21 11 143 13 626 12 587 -2 602 -2 690 -24
50 -13 99 -27 110 -32 11 -5 43 -18 71 -29 74 -28 177 -86 278 -154 95 -65
272 -235 321 -307 16 -25 32 -47 35 -50 14 -12 73 -117 96 -169 25 -56 105
-256 170 -425 19 -49 41 -103 48 -120 8 -17 51 -125 96 -241 150 -385 341
-869 360 -915 11 -25 58 -144 106 -265 47 -121 119 -303 159 -405 302 -766
340 -873 433 -1223 14 -53 29 -94 33 -90 3 5 16 46 28 93 34 134 50 186 106
360 54 166 112 320 300 795 81 204 149 377 152 385 3 8 11 29 18 45 7 17 45
113 85 215 141 360 157 396 247 521 180 253 500 467 775 519 29 6 67 13 83 16
17 3 121 6 233 6 111 0 202 3 202 7 0 36 -168 384 -281 581 -391 685 -971
1293 -1649 1727 -549 351 -1208 605 -1840 709 -14 3 -36 7 -50 9 -14 3 -47 7
-75 10 -27 3 -57 8 -65 10 -8 2 -44 6 -80 10 -36 3 -81 8 -100 11 -87 12 -652
28 -663 18z"/>
</g>
</svg>
