<?xml version="1.0" encoding="UTF-8"?>
<svg width="11px" height="15px" viewBox="0 0 11 15" version="1.1" xmlns="http://www.w3.org/2000/svg">
  <!-- Generator: Sketch 48.2 (47327) - http://www.bohemiancoding.com/sketch -->
  <title>doc - simple-line-icons</title>
  <desc>Created with Sketch.</desc>
  <defs></defs>
  <g id="popup" stroke="none" stroke-width="1" fill="none" fill-rule="evenodd"
     transform="translate(-1128.000000, -807.000000)">
    <g id="Group-3" transform="translate(1109.000000, 462.000000)" fill="#000000">
      <path
          d="M25.6,345.25 L29.975,349.625 L29.975,358.375 C29.975,358.621095 29.8906909,358.82845 29.7220703,358.99707 C29.5534497,359.165691 29.346095,359.25 29.1,359.25 L20.7875,359.25 C20.541405,359.25 20.3340503,359.165691 20.1654297,358.99707 C19.9968091,358.82845 19.9125,358.621095 19.9125,358.375 L19.9125,346.125 C19.9125,345.878905 19.9968091,345.67155 20.1654297,345.50293 C20.3340503,345.334309 20.541405,345.25 20.7875,345.25 L25.6,345.25 Z M29.1,349.994141 L25.2445312,346.125 L25.1625,346.125 L25.1625,350.0625 L29.1,350.0625 L29.1,349.994141 Z M20.7875,358.375 L29.1,358.375 L29.1,350.9375 L24.2875,350.9375 L24.2875,346.125 L20.7875,346.125 L20.7875,358.375 Z"
          id="doc---simple-line-icons"></path>
    </g>
  </g>
</svg>