<?xml version="1.0" encoding="UTF-8"?>
<svg width="15px" height="15px" viewBox="0 0 15 15" version="1.1" xmlns="http://www.w3.org/2000/svg"
     xmlns:xlink="http://www.w3.org/1999/xlink">
  <!-- Generator: Sketch 48.2 (47327) - http://www.bohemiancoding.com/sketch -->
  <title>copy</title>
  <desc>Created with Sketch.</desc>
  <defs>
    <path
        d="M6.81818182,6.13636364 C6.44162403,6.13636364 6.13636364,6.44162403 6.13636364,6.81818182 L6.13636364,12.9545455 C6.13636364,13.3311032 6.44162403,13.6363636 6.81818182,13.6363636 L12.9545455,13.6363636 C13.3311032,13.6363636 13.6363636,13.3311032 13.6363636,12.9545455 L13.6363636,6.81818182 C13.6363636,6.44162403 13.3311032,6.13636364 12.9545455,6.13636364 L6.81818182,6.13636364 Z M6.81818182,4.77272727 L12.9545455,4.77272727 C14.0842188,4.77272727 15,5.68850847 15,6.81818182 L15,12.9545455 C15,14.0842188 14.0842188,15 12.9545455,15 L6.81818182,15 C5.68850847,15 4.77272727,14.0842188 4.77272727,12.9545455 L4.77272727,6.81818182 C4.77272727,5.68850847 5.68850847,4.77272727 6.81818182,4.77272727 Z M2.72727273,8.86363636 C3.10383051,8.86363636 3.40909091,9.16889676 3.40909091,9.54545455 C3.40909091,9.92201233 3.10383051,10.2272727 2.72727273,10.2272727 L2.04545455,10.2272727 C0.915781194,10.2272727 0,9.31149153 0,8.18181818 L0,2.04545455 C-2.27091073e-16,0.915781194 0.915781194,0 2.04545455,0 L8.18181818,0 C9.31149153,0 10.2272727,0.915781194 10.2272727,2.04545455 L10.2272727,2.72727273 C10.2272727,3.10383051 9.92201233,3.40909091 9.54545455,3.40909091 C9.16889676,3.40909091 8.86363636,3.10383051 8.86363636,2.72727273 L8.86363636,2.04545455 C8.86363636,1.66889676 8.55837597,1.36363636 8.18181818,1.36363636 L2.04545455,1.36363636 C1.66889676,1.36363636 1.36363636,1.66889676 1.36363636,2.04545455 L1.36363636,8.18181818 C1.36363636,8.55837597 1.66889676,8.86363636 2.04545455,8.86363636 L2.72727273,8.86363636 Z"
        id="path-1"></path>
  </defs>
  <g id="popup" stroke="none" stroke-width="1" fill="none" fill-rule="evenodd"
     transform="translate(-922.000000, -128.000000)">
    <g id="webAdmin" transform="translate(657.000000, 17.000000)">
      <g id="copy" transform="translate(265.000000, 111.000000)">
        <mask id="mask-2" fill="white">
          <use xlink:href="#path-1"></use>
        </mask>
        <use id="Combined-Shape" fill="#000000" fill-rule="nonzero" xlink:href="#path-1"></use>
      </g>
    </g>
  </g>
</svg>