<?xml version="1.0" encoding="UTF-8"?>
<svg width="11px" height="11px" viewBox="0 0 11 11" version="1.1" xmlns="http://www.w3.org/2000/svg" xmlns:xlink="http://www.w3.org/1999/xlink">
    <!-- Generator: Sketch 49.3 (51167) - http://www.bohemiancoding.com/sketch -->
    <title>unlock</title>
    <desc>Created with Sketch.</desc>
    <defs>
        <path d="M2.75000006,5.04166667 L2.75000023,3.66712729 C2.74858035,2.25430626 3.8179585,1.07027303 5.2236274,0.928286273 C6.6292963,0.786299515 7.91385577,1.73256127 8.19500023,3.11712729 C8.24537194,3.36519532 8.0851074,3.60712853 7.83703938,3.65750023 C7.58897135,3.70787194 7.34703814,3.5476074 7.29666644,3.29953938 C7.10923679,2.37649536 6.25286381,1.74565419 5.31575122,1.84031203 C4.37863862,1.93496987 3.66571984,2.72432535 3.66666667,3.66666667 L3.66666667,5.04166667 L8.70833333,5.04166667 C9.46772486,5.04166667 10.0833333,5.65727514 10.0833333,6.41666667 L10.0833333,9.625 C10.0833333,10.3843915 9.46772486,11 8.70833333,11 L2.29166667,11 C1.53227514,11 0.916666667,10.3843915 0.916666667,9.625 L0.916666667,6.41666667 C0.916666667,5.65727514 1.53227514,5.04166667 2.29166667,5.04166667 L2.75000006,5.04166667 Z M2.29166667,5.95833333 C2.03853616,5.95833333 1.83333333,6.16353616 1.83333333,6.41666667 L1.83333333,9.625 C1.83333333,9.87813051 2.03853616,10.0833333 2.29166667,10.0833333 L8.70833333,10.0833333 C8.96146384,10.0833333 9.16666667,9.87813051 9.16666667,9.625 L9.16666667,6.41666667 C9.16666667,6.16353616 8.96146384,5.95833333 8.70833333,5.95833333 L2.29166667,5.95833333 Z" id="path-1"></path>
    </defs>
    <g id="Device-Summary" stroke="none" stroke-width="1" fill="none" fill-rule="evenodd">
        <g id="View" transform="translate(-311.000000, -115.000000)">
            <g id="unlock" transform="translate(311.000000, 115.000000)">
                <mask id="mask-2" fill="white">
                    <use xlink:href="#path-1"></use>
                </mask>
                <use id="Combined-Shape" fill="#000000" fill-rule="nonzero" xlink:href="#path-1"></use>
                <g id="color/grey400" mask="url(#mask-2)" fill="#B5B4B6" fill-rule="evenodd">
                    <g transform="translate(-17.416667, -10.083333)" id="Rectangle">
                        <rect x="0" y="0" width="37" height="37"></rect>
                    </g>
                </g>
            </g>
        </g>
    </g>
</svg>