<?xml version="1.0" encoding="UTF-8"?>
<svg width="10px" height="10px" viewBox="0 0 10 10" version="1.1" xmlns="http://www.w3.org/2000/svg" xmlns:xlink="http://www.w3.org/1999/xlink">
    <!-- Generator: Sketch 49.3 (51167) - http://www.bohemiancoding.com/sketch -->
    <title>lock</title>
    <desc>Created with Sketch.</desc>
    <defs>
        <path d="M2.48484848,4.09090909 L2.48484848,2.72727273 C2.48484848,1.22104159 3.70589008,2.52323415e-16 5.21212121,0 C6.71835235,-5.04646829e-16 7.93939394,1.22104159 7.93939394,2.72727273 L7.93939394,4.09090909 L8.39393939,4.09090909 C9.14705496,4.09090909 9.75757576,4.70142989 9.75757576,5.45454545 L9.75757576,8.63636364 C9.75757576,9.3894792 9.14705496,10 8.39393939,10 L2.03030303,10 C1.27718746,10 0.666666667,9.3894792 0.666666667,8.63636364 L0.666666667,5.45454545 C0.666666667,4.70142989 1.27718746,4.09090909 2.03030303,4.09090909 L2.48484848,4.09090909 Z M3.39393939,4.09090909 L7.03030303,4.09090909 L7.03030303,2.72727273 C7.03030303,1.72311864 6.2162753,0.909090909 5.21212121,0.909090909 C4.20796712,0.909090909 3.39393939,1.72311864 3.39393939,2.72727273 L3.39393939,4.09090909 Z M2.03030303,5 C1.77926451,5 1.57575758,5.20350693 1.57575758,5.45454545 L1.57575758,8.63636364 C1.57575758,8.88740216 1.77926451,9.09090909 2.03030303,9.09090909 L8.39393939,9.09090909 C8.64497792,9.09090909 8.84848485,8.88740216 8.84848485,8.63636364 L8.84848485,5.45454545 C8.84848485,5.20350693 8.64497792,5 8.39393939,5 L2.03030303,5 Z" id="path-1"></path>
    </defs>
    <g id="Device-Summary" stroke="none" stroke-width="1" fill="none" fill-rule="evenodd">
        <g id="View" transform="translate(-311.000000, -116.000000)">
            <g id="device-summary" transform="translate(30.000000, 70.000000)">
                <g id="label">
                    <g transform="translate(270.000000, 41.000000)">
                        <g id="icon/lock" transform="translate(11.000000, 5.000000)">
                            <mask id="mask-2" fill="white">
                                <use xlink:href="#path-1"></use>
                            </mask>
                            <use id="Combined-Shape" fill="#000000" fill-rule="evenodd" xlink:href="#path-1"></use>
                            <g id="color/blue" mask="url(#mask-2)" fill="#4A97E2" fill-rule="evenodd">
                                <g transform="translate(-20.000000, -22.666667)" id="Rectangle">
                                    <rect x="0" y="0" width="53" height="53"></rect>
                                </g>
                            </g>
                        </g>
                    </g>
                </g>
            </g>
        </g>
    </g>
</svg>