<?xml version="1.0" encoding="UTF-8"?>
<svg width="25px" height="22px" viewBox="0 0 25 22" version="1.1" xmlns="http://www.w3.org/2000/svg">
  <!-- Generator: Sketch 48.2 (47327) - http://www.bohemiancoding.com/sketch -->
  <title></title>
  <desc>Created with Sketch.</desc>
  <defs></defs>
  <g id="popup" stroke="none" stroke-width="1" fill="none" fill-rule="evenodd"
     transform="translate(-1247.000000, -174.000000)">
    <g id="Group-3" transform="translate(1109.000000, 17.000000)" fill="#000000">
      <path
          d="M156.62793,161.711914 C157.50684,161.809571 158.332841,162.053709 159.105957,162.444336 C159.879073,162.834963 160.554522,163.335446 161.132324,163.945801 C161.710127,164.556155 162.165851,165.256018 162.499512,166.04541 C162.833172,166.834802 163,167.677079 163,168.572266 C163,169.418624 162.869793,170.26497 162.609375,171.111328 C162.348957,171.957687 161.970543,172.718584 161.474121,173.394043 C160.977699,174.069502 160.359216,174.626951 159.618652,175.066406 C158.878089,175.505862 158.019536,175.741862 157.042969,175.774414 L155.260742,175.774414 C155.049153,175.774414 154.866049,175.697104 154.711426,175.54248 C154.556803,175.387857 154.479492,175.204754 154.479492,174.993164 C154.479492,174.781574 154.556803,174.598471 154.711426,174.443848 C154.866049,174.289224 155.049153,174.211914 155.260742,174.211914 L157.042969,174.211914 C157.71029,174.211914 158.316566,174.041017 158.861816,173.699219 C159.407067,173.35742 159.874998,172.917971 160.265625,172.380859 C160.656252,171.843747 160.957356,171.24154 161.168945,170.574219 C161.380535,169.906898 161.486328,169.239587 161.486328,168.572266 C161.486328,167.83984 161.339845,167.152184 161.046875,166.509277 C160.753905,165.86637 160.355146,165.304853 159.850586,164.824707 C159.346026,164.344561 158.768232,163.962078 158.117188,163.677246 C157.466143,163.392414 156.774418,163.25 156.041992,163.25 L155.480469,163.225586 L155.30957,162.688477 C154.902667,161.386387 154.247563,160.373213 153.344238,159.648926 C152.440913,158.924638 151.216154,158.5625 149.669922,158.5625 C148.693354,158.5625 147.814457,158.729328 147.033203,159.062988 C146.251949,159.396649 145.580569,159.860511 145.019043,160.45459 C144.457517,161.048668 144.026206,161.756669 143.725098,162.578613 C143.423989,163.400557 143.273438,164.283524 143.273438,165.227539 L143.297852,165.227539 L143.34668,165.959961 L142.638672,166.082031 C141.776037,166.228516 141.043623,166.692379 140.441406,167.473633 C139.83919,168.254887 139.538086,169.133784 139.538086,170.110352 C139.538086,171.217128 139.908362,172.177405 140.648926,172.991211 C141.389489,173.805017 142.264318,174.211914 143.273438,174.211914 L145.519531,174.211914 C145.747397,174.211914 145.93457,174.289224 146.081055,174.443848 C146.22754,174.598471 146.300781,174.781574 146.300781,174.993164 C146.300781,175.204754 146.22754,175.387857 146.081055,175.54248 C145.93457,175.697104 145.747397,175.774414 145.519531,175.774414 L143.273438,175.774414 C142.557288,175.774414 141.881839,175.623862 141.24707,175.322754 C140.612302,175.021646 140.054853,174.61068 139.574707,174.089844 C139.094561,173.569008 138.712078,172.9668 138.427246,172.283203 C138.142414,171.599606 138,170.875329 138,170.110352 C138,168.85709 138.349931,167.725917 139.049805,166.716797 C139.749678,165.707677 140.644851,165.032228 141.735352,164.69043 C141.800456,163.599929 142.040525,162.586756 142.455566,161.650879 C142.870608,160.715002 143.423987,159.901208 144.115723,159.209473 C144.807458,158.517737 145.621252,157.976564 146.557129,157.585938 C147.493006,157.195311 148.530593,157 149.669922,157 C150.548833,157 151.354489,157.109862 152.086914,157.32959 C152.81934,157.549318 153.478513,157.862628 154.064453,158.269531 C154.650394,158.676434 155.154946,159.172849 155.578125,159.758789 C156.001304,160.344729 156.351236,160.995765 156.62793,161.711914 Z M151.085938,167.9375 L153.966797,171.111328 C154.08073,171.225261 154.137695,171.359537 154.137695,171.51416 C154.137695,171.668783 154.08073,171.811197 153.966797,171.941406 L153.771484,172.063477 C153.673828,172.177409 153.54769,172.222168 153.393066,172.197754 C153.238443,172.17334 153.104167,172.104167 152.990234,171.990234 L151.28125,170.085938 L151.28125,177.947266 C151.28125,178.175131 151.20394,178.362304 151.049316,178.508789 C150.894693,178.655274 150.71159,178.728516 150.5,178.728516 C150.272134,178.728516 150.084962,178.655274 149.938477,178.508789 C149.791991,178.362304 149.71875,178.175131 149.71875,177.947266 L149.71875,170.085938 L148.058594,171.941406 C147.944661,172.055339 147.810385,172.124512 147.655762,172.148926 C147.501139,172.17334 147.366863,172.128581 147.25293,172.014648 L147.057617,171.892578 C146.943684,171.762369 146.886719,171.619955 146.886719,171.465332 C146.886719,171.310709 146.943684,171.176433 147.057617,171.0625 L149.889648,167.9375 L149.889648,167.913086 L150.084961,167.717773 C150.133789,167.652669 150.194824,167.60791 150.268066,167.583496 C150.341309,167.559082 150.410481,167.546875 150.475586,167.546875 C150.556967,167.546875 150.630208,167.559082 150.695312,167.583496 C150.760417,167.60791 150.825521,167.652669 150.890625,167.717773 L151.085938,167.913086 L151.085938,167.9375 Z"
          id=""></path>
    </g>
  </g>
</svg>