<?xml version="1.0" encoding="UTF-8"?>
<svg width="15px" height="15px" viewBox="0 0 15 15" version="1.1" xmlns="http://www.w3.org/2000/svg">
  <!-- Generator: Sketch 47.1 (45422) - http://www.bohemiancoding.com/sketch -->
  <title>checkbox/checked</title>
  <desc>Created with Sketch.</desc>
  <defs></defs>
  <g id="Symbols" stroke="none" stroke-width="1" fill="none" fill-rule="evenodd">
    <g id="checkbox/checked">
      <rect id="Rectangle-2" fill="#47A662" x="0" y="0" width="15" height="15"></rect>
      <path
          d="M12.3247879,5.58704712 C12.3247879,5.44753802 12.2689843,5.30802893 12.1685377,5.20758238 L11.4096082,4.4486529 C11.3091617,4.34820636 11.1696526,4.29240272 11.0301435,4.29240272 C10.8906344,4.29240272 10.7511253,4.34820636 10.6506788,4.4486529 L6.98996011,8.11495192 L5.34933316,6.4687446 C5.24888661,6.36829805 5.10937751,6.31249441 4.96986842,6.31249441 C4.83035932,6.31249441 4.69085023,6.36829805 4.59040368,6.4687446 L3.83147421,7.22767407 C3.73102766,7.32812062 3.67522402,7.46762972 3.67522402,7.60713881 C3.67522402,7.74664791 3.73102766,7.886157 3.83147421,7.98660355 L6.61049538,10.7656247 C6.71094192,10.8660713 6.85045102,10.9218749 6.98996011,10.9218749 C7.12946921,10.9218749 7.2689783,10.8660713 7.36942485,10.7656247 L12.1685377,5.96651186 C12.2689843,5.86606531 12.3247879,5.72655621 12.3247879,5.58704712 Z"
          id="Check---FontAwesome" fill="#FFFFFF"></path>
    </g>
  </g>
</svg>