<?xml version="1.0" encoding="UTF-8"?>
<svg width="15px" height="15px" viewBox="0 0 15 15" version="1.1" xmlns="http://www.w3.org/2000/svg"
     xmlns:xlink="http://www.w3.org/1999/xlink">
  <!-- Generator: Sketch 48.2 (47327) - http://www.bohemiancoding.com/sketch -->
  <title>icon/clock</title>
  <desc>Created with Sketch.</desc>
  <defs>
    <path
        d="M7.5,15 C3.35786438,15 0,11.6421356 0,7.5 C0,3.35786438 3.35786438,0 7.5,0 C11.6421356,0 15,3.35786438 15,7.5 C15,11.6421356 11.6421356,15 7.5,15 Z M7.5,13.6363636 C10.8890201,13.6363636 13.6363636,10.8890201 13.6363636,7.5 C13.6363636,4.11097994 10.8890201,1.36363636 7.5,1.36363636 C4.11097994,1.36363636 1.36363636,4.11097994 1.36363636,7.5 C1.36363636,10.8890201 4.11097994,13.6363636 7.5,13.6363636 Z M8.18181818,3.40909091 L8.18181818,7.21758166 L10.0275728,9.06333629 C10.2938394,9.32960285 10.2938394,9.76130624 10.0275728,10.0275728 C9.76130624,10.2938394 9.32960285,10.2938394 9.06333629,10.0275728 L7.01788174,7.98211826 C6.89001603,7.85425255 6.81818182,7.68082942 6.81818182,7.5 L6.81818182,3.40909091 C6.81818182,3.03253313 7.12344222,2.72727273 7.5,2.72727273 C7.87655778,2.72727273 8.18181818,3.03253313 8.18181818,3.40909091 Z"
        id="path-1"></path>
  </defs>
  <g id="symbols" stroke="none" stroke-width="1" fill="none" fill-rule="evenodd">
    <g id="icon/clock">
      <mask id="mask-2" fill="white">
        <use xlink:href="#path-1"></use>
      </mask>
      <use id="Combined-Shape" fill="#000000" fill-rule="nonzero" xlink:href="#path-1"></use>
      <g id="color/black" mask="url(#mask-2)" fill="#000000">
        <g transform="translate(-25.000000, -28.000000)" id="Rectangle">
          <rect x="0" y="0" width="80" height="80"></rect>
        </g>
      </g>
    </g>
  </g>
</svg>