<?xml version="1.0" encoding="UTF-8"?>
<svg width="15px" height="16px" viewBox="0 0 15 16" version="1.1" xmlns="http://www.w3.org/2000/svg">
    <!-- Generator: Sketch 49.3 (51167) - http://www.bohemiancoding.com/sketch -->
    <title>X</title>
    <desc>Created with Sketch.</desc>
    <defs></defs>
    <g id="Device-Summary" stroke="none" stroke-width="1" fill="none" fill-rule="evenodd">
        <g id="Extentions_" transform="translate(-968.000000, -85.000000)" fill="#000000">
            <g id="popup|DMtoAWS" transform="translate(0.000000, -230.000000)">
                <g id="box" transform="translate(464.000000, 286.000000)">
                    <g id="icon/delete" transform="translate(504.000000, 30.000000)">
                        <path d="M7.5,-0.0625 C8.53516143,-0.0625 9.50927278,0.132810547 10.4223633,0.5234375 C11.3354538,0.914064453 12.1313443,1.44872708 12.8100586,2.12744141 C13.4887729,2.80615574 14.0234355,3.60204622 14.4140625,4.51513672 C14.8046895,5.42822722 15,6.40233857 15,7.4375 C15,8.47266143 14.8046895,9.44677278 14.4140625,10.3598633 C14.0234355,11.2729538 13.4887729,12.0688443 12.8100586,12.7475586 C12.1313443,13.4262729 11.3354538,13.9609355 10.4223633,14.3515625 C9.50927278,14.7421895 8.53516143,14.9375 7.5,14.9375 C6.46483857,14.9375 5.49072722,14.7421895 4.57763672,14.3515625 C3.66454622,13.9609355 2.86865574,13.4262729 2.18994141,12.7475586 C1.51122708,12.0688443 0.976564453,11.2729538 0.5859375,10.3598633 C0.195310547,9.44677278 0,8.47266143 0,7.4375 C0,6.40233857 0.195310547,5.42822722 0.5859375,4.51513672 C0.976564453,3.60204622 1.51122708,2.80615574 2.18994141,2.12744141 C2.86865574,1.44872708 3.66454622,0.914064453 4.57763672,0.5234375 C5.49072722,0.132810547 6.46483857,-0.0625 7.5,-0.0625 Z M7.5,14.0146484 C8.40820767,14.0146484 9.26024993,13.8413103 10.0561523,13.4946289 C10.8520548,13.1479475 11.5454072,12.6767608 12.1362305,12.0810547 C12.7270537,11.4853486 13.195799,10.7895548 13.5424805,9.99365234 C13.8891619,9.19774993 14.0625,8.34570767 14.0625,7.4375 C14.0625,6.52929233 13.8891619,5.67725007 13.5424805,4.88134766 C13.195799,4.08544524 12.7270537,3.3920928 12.1362305,2.80126953 C11.5454072,2.21044626 10.8520548,1.74170095 10.0561523,1.39501953 C9.26024993,1.04833811 8.40820767,0.875 7.5,0.875 C6.59179233,0.875 5.73975007,1.04833811 4.94384766,1.39501953 C4.14794524,1.74170095 3.4545928,2.21044626 2.86376953,2.80126953 C2.27294626,3.3920928 1.80420095,4.08544524 1.45751953,4.88134766 C1.11083811,5.67725007 0.9375,6.52929233 0.9375,7.4375 C0.9375,8.34570767 1.11083811,9.19774993 1.45751953,9.99365234 C1.80420095,10.7895548 2.27294626,11.4853486 2.86376953,12.0810547 C3.4545928,12.6767608 4.14794524,13.1479475 4.94384766,13.4946289 C5.73975007,13.8413103 6.59179233,14.0146484 7.5,14.0146484 Z M10.1513672,4.78613281 C10.2392583,4.87402388 10.2832031,4.98388606 10.2832031,5.11572266 C10.2832031,5.24755925 10.2392583,5.35742144 10.1513672,5.4453125 L8.15917969,7.4375 L10.1513672,9.4296875 C10.2392583,9.51757856 10.2832031,9.62744075 10.2832031,9.75927734 C10.2832031,9.89111394 10.2392583,10.0009761 10.1513672,10.0888672 C10.0634761,10.1767583 9.95361394,10.2207031 9.82177734,10.2207031 C9.68994075,10.2207031 9.58007856,10.1767583 9.4921875,10.0888672 L7.5,8.09667969 L5.5078125,10.0888672 C5.41992144,10.1767583 5.31005925,10.2207031 5.17822266,10.2207031 C5.04638606,10.2207031 4.93652388,10.1767583 4.84863281,10.0888672 C4.76074175,10.0009761 4.71679688,9.89111394 4.71679688,9.75927734 C4.71679688,9.62744075 4.76074175,9.51757856 4.84863281,9.4296875 L6.84082031,7.4375 L4.84863281,5.4453125 C4.76074175,5.35742144 4.71679688,5.24755925 4.71679688,5.11572266 C4.71679688,4.98388606 4.76074175,4.87402388 4.84863281,4.78613281 C4.93652388,4.69824175 5.04638606,4.65429688 5.17822266,4.65429688 C5.31005925,4.65429688 5.41992144,4.69824175 5.5078125,4.78613281 L7.5,6.77832031 L9.4921875,4.78613281 C9.58007856,4.69824175 9.68994075,4.65429688 9.82177734,4.65429688 C9.95361394,4.65429688 10.0634761,4.69824175 10.1513672,4.78613281 Z" id=""></path>
                    </g>
                </g>
            </g>
        </g>
    </g>
</svg>