<svg width="15" height="15" xmlns="http://www.w3.org/2000/svg" xmlns:xlink="http://www.w3.org/1999/xlink"><defs><path d="M8.23943662 8.23943662V3.73239437H6.76056338v4.50704225h1.47887324zm0 3.02816898V9.75352113H6.76056338v1.51408447h1.47887324zM2.18309859 2.21830986C3.66197923.73942922 5.43426197 0 7.5 0s3.8321523.73356074 5.2992958 2.20070423C14.2664393 3.66784771 15 5.43426197 15 7.5c0 2.06573803-.7335607 3.8321523-2.2007042 5.2992958C11.3321523 14.2664393 9.56573803 15 7.5 15c-2.06573803 0-3.83215229-.7335607-5.29929577-2.2007042C.73356073 11.3321523 0 9.56573803 0 7.5c0-2.06573803.72769225-3.8262838 2.18309859-5.28169014z" id="a"/></defs><use fill="#636263" xlink:href="#a" fill-rule="evenodd"/></svg>
