<?xml version="1.0" encoding="UTF-8"?>
<svg width="13px" height="13px" viewBox="0 0 13 13" version="1.1" xmlns="http://www.w3.org/2000/svg">
  <!-- Generator: Sketch 47.1 (45422) - http://www.bohemiancoding.com/sketch -->
  <title>icon/error</title>
  <desc>Created with Sketch.</desc>
  <defs></defs>
  <g id="Symbols" stroke="none" stroke-width="1" fill="none" fill-rule="evenodd">
    <g id="icon/error" fill="#D0021B">
      <path
          d="M7.42858028,9.83202986 L7.42858028,8.45368 C7.42858028,8.32309949 7.32701766,8.21428239 7.19643715,8.21428239 L5.80357835,8.21428239 C5.67299783,8.21428239 5.57143521,8.32309949 5.57143521,8.45368 L5.57143521,9.83202986 C5.57143521,9.96261037 5.67299783,10.0714275 5.80357835,10.0714275 L7.19643715,10.0714275 C7.32701766,10.0714275 7.42858028,9.96261037 7.42858028,9.83202986 Z M7.41407134,7.11885698 L7.54465185,3.7890539 C7.54465185,3.74552707 7.52288843,3.68749128 7.47210712,3.65121892 C7.42858028,3.61494655 7.36329003,3.57141972 7.29799977,3.57141972 L5.70201573,3.57141972 C5.63672547,3.57141972 5.57143521,3.61494655 5.52790838,3.65121892 C5.47712706,3.68749128 5.45536365,3.76003601 5.45536365,3.80356285 L5.57868969,7.11885698 C5.57868969,7.21316513 5.68750678,7.28570986 5.82534177,7.28570986 L7.16741926,7.28570986 C7.29799977,7.28570986 7.40681687,7.21316513 7.41407134,7.11885698 Z M7.31250872,0.34317926 L12.8839439,10.5574772 C13.0435423,10.8404016 13.0362879,11.1886163 12.869435,11.4715407 C12.7025821,11.7544652 12.3978942,11.9285725 12.071443,11.9285725 L0.928572536,11.9285725 C0.602121253,11.9285725 0.29743339,11.7544652 0.130580513,11.4715407 C-0.0362723647,11.1886163 -0.0435268376,10.8404016 0.116071567,10.5574772 L5.68750678,0.34317926 C5.84710518,0.0457458701 6.15904752,-0.142870426 6.50000775,-0.142870426 C6.84096798,-0.142870426 7.15291031,0.0457458701 7.31250872,0.34317926 Z"
          id="exclamation-triangle---FontAwesome"></path>
    </g>
  </g>
</svg>