<?xml version="1.0" encoding="UTF-8"?>
<svg width="20px" height="8px" viewBox="0 0 40 16" version="1.1" xmlns="http://www.w3.org/2000/svg">
    <!-- Generator: Sketch 64 (93537) - https://sketch.com -->
    <title>ibm</title>
    <desc>Created with Sketch.</desc>
    <g id="Page-1" stroke="none" stroke-width="1" fill="none" fill-rule="evenodd">
        <g id="ibm" transform="translate(-13.000000, -25.000000)" fill="#000000">
            <g transform="translate(13.000000, 25.000000)" id="Shape">
                <path d="M5.32907052e-15,0 L5.32907052e-15,1.09466667 L7.78590476,1.09466667 L7.78590476,0 L5.32907052e-15,0 Z M8.88904762,0 L8.88904762,1.09466667 L19.984381,1.09466667 C19.984381,1.09466667 18.8510476,0 17.35,0 L8.88904762,0 Z M22.1609524,0 L22.1609524,1.09466667 L28.8734286,1.09466667 L28.4750476,0 L22.1609524,0 Z M33.6859048,0 L33.2875238,1.09466667 L39.9390476,1.09466667 L39.9390476,0 L33.6859048,0 Z M0,2.12885714 L0,3.22352381 L7.78590476,3.22352381 L7.78590476,2.12885714 L0,2.12885714 Z M8.88904762,2.13047619 L8.88904762,3.22361905 L21.2718095,3.22361905 C21.2718095,3.22361905 21.1272381,2.38104762 20.8749524,2.13047619 L8.88904762,2.13047619 Z M22.1609524,2.13047619 L22.1609524,3.22361905 L29.6093333,3.22361905 L29.2405714,2.13047619 L22.1609524,2.13047619 Z M32.8890476,2.13047619 L32.5202857,3.22361905 L39.9390476,3.22361905 L39.9390476,2.13047619 L32.8890476,2.13047619 Z M2.23752381,4.25771429 L2.23752381,5.354 L5.60933333,5.354 L5.60933333,4.25771429 L2.23752381,4.25771429 Z M11.1265714,4.25771429 L11.1265714,5.354 L14.4984762,5.354 L14.4984762,4.25771429 L11.1265714,4.25771429 Z M17.7780952,4.25771429 L17.7780952,5.354 L21.15,5.354 C21.15,5.354 21.3640952,4.77504762 21.3640952,4.25771429 L17.7780952,4.25771429 Z M24.3984762,4.25771429 L24.3984762,5.354 L30.3765714,5.354 L29.9780952,4.25771429 L24.3984762,4.25771429 Z M32.1546667,4.25771429 L31.7546667,5.354 L37.7624762,5.354 L37.7624762,4.25771429 L32.1546667,4.25771429 Z M2.23752381,6.38828571 L2.23752381,7.48295238 L5.60933333,7.48295238 L5.60933333,6.38828571 L2.23752381,6.38828571 Z M11.1265714,6.38828571 L11.1265714,7.48295238 L19.7390476,7.48295238 C19.7390476,7.48295238 20.4595238,6.9212381 20.6890476,6.38828571 L11.1265714,6.38828571 Z M24.3984762,6.38828571 L24.3984762,7.48295238 L27.7702857,7.48295238 L27.7702857,6.87352381 L27.984381,7.48295238 L34.1609524,7.48295238 L34.3906667,6.87352381 L34.3906667,7.48295238 L37.7624762,7.48295238 L37.7624762,6.38828571 L31.4327619,6.38828571 L31.0968571,7.31542857 L30.7593333,6.38828571 L24.3984762,6.38828571 Z M2.23752381,8.51714286 L2.23752381,9.61180952 L5.60933333,9.61180952 L5.60933333,8.51714286 L2.23752381,8.51714286 Z M11.1265714,8.51714286 L11.1265714,9.61180952 L20.6890476,9.61180952 C20.4595238,9.08057143 19.7390476,8.51714286 19.7390476,8.51714286 L11.1265714,8.51714286 Z M24.3984762,8.51714286 L24.3984762,9.61180952 L27.7702857,9.61180952 L27.7702857,8.51714286 L24.3984762,8.51714286 Z M28.3827619,8.51714286 L28.7905714,9.61180952 L33.4218095,9.61180952 L33.8093333,8.51714286 L28.3827619,8.51714286 Z M34.3905714,8.51714286 L34.3905714,9.61180952 L37.7624762,9.61180952 L37.7624762,8.51714286 L34.3905714,8.51714286 Z M2.23752381,10.646 L2.23752381,11.7406667 L5.60933333,11.7406667 L5.60933333,10.646 L2.23752381,10.646 Z M11.1265714,10.646 L11.1265714,11.7406667 L14.4984762,11.7406667 L14.4984762,10.646 L11.1265714,10.646 Z M17.7780952,10.646 L17.7780952,11.7406667 L21.364,11.7406667 C21.364,11.224 21.15,10.646 21.15,10.646 L17.7780952,10.646 Z M24.3984762,10.646 L24.3984762,11.7406667 L27.7702857,11.7406667 L27.7702857,10.646 L24.3984762,10.646 Z M29.1484762,10.646 L29.5437143,11.7406667 L32.6484762,11.7406667 L33.0468571,10.646 L29.1484762,10.646 Z M34.3905714,10.646 L34.3905714,11.7406667 L37.7624762,11.7406667 L37.7624762,10.646 L34.3905714,10.646 Z M0.060952381,12.7748571 L0.060952381,13.8711429 L7.84685714,13.8711429 L7.84685714,12.7748571 L0.060952381,12.7748571 Z M8.88904762,12.7748571 L8.88904762,13.8711429 L20.8749524,13.8711429 C21.1272381,13.6200952 21.2718095,12.7748571 21.2718095,12.7748571 L8.88904762,12.7748571 Z M22.2219048,12.7748571 L22.2219048,13.8711429 L27.7702857,13.8711429 L27.7702857,12.7748571 L22.2219048,12.7748571 Z M29.915619,12.7748571 L30.3218095,13.8711429 L31.9015238,13.8711429 L32.2827619,12.7748571 L29.915619,12.7748571 Z M34.3905714,12.7748571 L34.3905714,13.8711429 L40,13.8711429 L40,12.7748571 L34.3905714,12.7748571 Z M0.060952381,14.9053333 L0.060952381,16 L7.84685714,16 L7.84685714,14.9053333 L0.060952381,14.9053333 Z M8.88904762,14.9053333 L8.88904762,15.9984762 L17.35,15.9984762 C18.8510476,15.9984762 19.984381,14.9053333 19.984381,14.9053333 L8.88904762,14.9053333 Z M22.2219048,14.9053333 L22.2219048,16 L27.7702857,16 L27.7702857,14.9053333 L22.2219048,14.9053333 Z M30.6859048,14.9053333 L31.0765714,15.9969524 L31.1437143,15.9984762 L31.5406667,14.9053333 L30.6859048,14.9053333 Z M34.3905714,14.9053333 L34.3905714,16 L40,16 L40,14.9053333 L34.3905714,14.9053333 Z"></path>
            </g>
        </g>
    </g>
</svg>