<?xml version="1.0" encoding="UTF-8"?>
<svg width="13px" height="13px" viewBox="0 0 13 13" version="1.1" xmlns="http://www.w3.org/2000/svg" xmlns:xlink="http://www.w3.org/1999/xlink">
    <!-- Generator: Sketch 49.3 (51167) - http://www.bohemiancoding.com/sketch -->
    <title>settings</title>
    <desc>Created with Sketch.</desc>
    <defs>
        <path d="M10.9951825,4.72071962 C11.0595676,4.81563661 11.1671827,4.8745348 11.2829167,4.875 L11.375,4.875 C12.2724627,4.875 13,5.60253728 13,6.5 C13,7.39746272 12.2724627,8.125 11.375,8.125 L11.3284103,8.12499569 C11.18808,8.12555538 11.0614817,8.20939527 11.0062007,8.33837953 C10.9457696,8.47538327 10.9736547,8.62917396 11.0700995,8.72781716 L11.1023864,8.76010417 C11.4075241,9.06490258 11.5789772,9.47850164 11.5789772,9.90979167 C11.5789772,10.3410817 11.4075241,10.7546807 11.1028125,11.0590531 C10.7980141,11.3641908 10.384415,11.5356439 9.953125,11.5356439 C9.52183497,11.5356439 9.10823592,11.3641908 8.80365049,11.0592662 L8.77539815,11.0309672 C8.67250729,10.9303214 8.51871661,10.9024362 8.38171286,10.9628674 C8.25272861,11.0181484 8.16888871,11.1447466 8.16833333,11.2829167 L8.16833333,11.375 C8.16833333,12.2724627 7.44079605,13 6.54333333,13 C5.64587061,13 4.91833333,12.2724627 4.91833333,11.375 C4.91510073,11.1943856 4.82371167,11.0666101 4.65629377,11.0038839 C4.52461673,10.9457696 4.37082604,10.9736547 4.27218284,11.0700995 L4.23989583,11.1023864 C3.93509742,11.4075241 3.52149836,11.5789772 3.09020833,11.5789772 C2.65891831,11.5789772 2.24531925,11.4075241 1.94094694,11.1028125 C1.63580924,10.7980141 1.46435612,10.384415 1.46435612,9.953125 C1.46435612,9.52183497 1.63580924,9.10823592 1.94073383,8.80365049 L1.96903277,8.77539815 C2.06967864,8.67250729 2.09756377,8.51871661 2.03713259,8.38171286 C1.98185161,8.25272861 1.85525337,8.16888871 1.71708333,8.16833333 L1.625,8.16833333 C0.727537282,8.16833333 1.80411242e-16,7.44079605 0,6.54333333 C-1.20274161e-16,5.64587061 0.727537282,4.91833333 1.625,4.91833333 C1.80561445,4.91510073 1.9333899,4.82371167 1.9961161,4.65629377 C2.05423043,4.52461673 2.02634531,4.37082604 1.92990049,4.27218284 L1.89761361,4.23989583 C1.59247591,3.93509742 1.42102279,3.52149836 1.42102279,3.09020833 C1.42102279,2.65891831 1.59247591,2.24531925 1.8971875,1.94094694 C2.20198592,1.63580924 2.61558497,1.46435612 3.046875,1.46435612 C3.47816503,1.46435612 3.89176408,1.63580924 4.19634951,1.94073383 L4.22460185,1.96903277 C4.32749271,2.06967864 4.48128339,2.09756377 4.61296044,2.03944943 C4.647666,2.02413248 4.68378834,2.01254577 4.72071962,2.00481746 C4.81563661,1.94043241 4.8745348,1.8328173 4.875,1.71708333 L4.875,1.625 C4.875,0.727537282 5.60253728,1.80411242e-16 6.5,0 C7.39746272,0 8.125,0.727537282 8.125,1.625 L8.12499569,1.67158966 C8.12555538,1.81192004 8.20939527,1.93851828 8.34370623,1.9961161 C8.47538327,2.05423043 8.62917396,2.02634531 8.72781716,1.92990049 L8.76010417,1.89761361 C9.06490258,1.59247591 9.47850164,1.42102279 9.90979167,1.42102279 C10.3410817,1.42102279 10.7546807,1.59247591 11.0590531,1.8971875 C11.3641908,2.20198592 11.5356439,2.61558497 11.5356439,3.046875 C11.5356439,3.47816503 11.3641908,3.89176408 11.0592662,4.19634951 L11.0309672,4.22460185 C10.9303214,4.32749271 10.9024362,4.48128339 10.9605506,4.61296044 C10.9758675,4.647666 10.9874542,4.68378834 10.9951825,4.72071962 Z M4.94530071,3.0720853 C4.43338881,3.25153727 3.85917448,3.12701847 3.46281716,2.73926617 L3.43010417,2.70655306 C3.32850469,2.6048405 3.19063834,2.54768946 3.046875,2.54768946 C2.90311166,2.54768946 2.76524531,2.6048405 2.66321973,2.70697917 C2.56150716,2.80857864 2.50435612,2.94644499 2.50435612,3.09020833 C2.50435612,3.23397168 2.56150716,3.37183803 2.66343284,3.47365049 L2.7001339,3.51039815 C3.11045939,3.92987625 3.2241449,4.55686903 3.00004039,5.06197309 C2.7965895,5.61514941 2.27565883,5.98773559 1.67375,6.00166667 L1.625,6.00166667 C1.32584576,6.00166667 1.08333333,6.24417909 1.08333333,6.54333333 C1.08333333,6.84248757 1.32584576,7.085 1.625,7.085 L1.71924367,7.08500431 C2.2913598,7.0872861 2.80749108,7.4290949 3.03055057,7.94962711 C3.26747823,8.4864643 3.15379273,9.11345708 2.73926617,9.53718284 L2.70655306,9.56989583 C2.6048405,9.67149531 2.54768946,9.80936166 2.54768946,9.953125 C2.54768946,10.0968883 2.6048405,10.2347547 2.70697917,10.3367803 C2.80857864,10.4384928 2.94644499,10.4956439 3.09020833,10.4956439 C3.23397168,10.4956439 3.37183803,10.4384928 3.47365049,10.3365672 L3.51039815,10.2998661 C3.92987625,9.88954061 4.55686903,9.7758551 5.06197309,9.99995961 C5.61514941,10.2034105 5.98773559,10.7243412 6.00166667,11.32625 L6.00166667,11.375 C6.00166667,11.6741542 6.24417909,11.9166667 6.54333333,11.9166667 C6.84248757,11.9166667 7.085,11.6741542 7.085,11.375 L7.08500431,11.2807563 C7.0872861,10.7086402 7.4290949,10.1925089 7.94962711,9.96944943 C8.4864643,9.73252177 9.11345708,9.84620727 9.53718284,10.2607338 L9.56989583,10.2934469 C9.67149531,10.3951595 9.80936166,10.4523105 9.953125,10.4523105 C10.0968883,10.4523105 10.2347547,10.3951595 10.3367803,10.2930208 C10.4384928,10.1914214 10.4956439,10.053555 10.4956439,9.90979167 C10.4956439,9.76602832 10.4384928,9.62816197 10.3365672,9.52634951 L10.2998661,9.48960185 C9.88954061,9.07012375 9.7758551,8.44313097 10.0127828,7.90629377 C10.2358423,7.38576157 10.7519735,7.04395277 11.32625,7.04166667 L11.375,7.04166667 C11.6741542,7.04166667 11.9166667,6.79915424 11.9166667,6.5 C11.9166667,6.20084576 11.6741542,5.95833333 11.375,5.95833333 L11.2807563,5.95832903 C10.7086402,5.95604723 10.1925089,5.61423843 9.96713259,5.08837953 C9.94751578,5.04260864 9.93434892,4.99445661 9.9279147,4.94530071 C9.74846273,4.43338881 9.87298153,3.85917448 10.2607338,3.46281716 L10.2934469,3.43010417 C10.3951595,3.32850469 10.4523105,3.19063834 10.4523105,3.046875 C10.4523105,2.90311166 10.3951595,2.76524531 10.2930208,2.66321973 C10.1914214,2.56150716 10.053555,2.50435612 9.90979167,2.50435612 C9.76602832,2.50435612 9.62816197,2.56150716 9.52634951,2.66343284 L9.48960185,2.7001339 C9.07012375,3.11045939 8.44313097,3.2241449 7.91162047,2.98953407 C7.38576157,2.76415775 7.04395277,2.24802646 7.04166667,1.67375 L7.04166667,1.625 C7.04166667,1.32584576 6.79915424,1.08333333 6.5,1.08333333 C6.20084576,1.08333333 5.95833333,1.32584576 5.95833333,1.625 L5.95832903,1.71924367 C5.95604723,2.2913598 5.61423843,2.80749108 5.08837953,3.03286741 C5.04260864,3.05248422 4.99445661,3.06565108 4.94530071,3.0720853 Z M6.5,8.66666667 C5.30338304,8.66666667 4.33333333,7.69661696 4.33333333,6.5 C4.33333333,5.30338304 5.30338304,4.33333333 6.5,4.33333333 C7.69661696,4.33333333 8.66666667,5.30338304 8.66666667,6.5 C8.66666667,7.69661696 7.69661696,8.66666667 6.5,8.66666667 Z M6.5,7.58333333 C7.09830848,7.58333333 7.58333333,7.09830848 7.58333333,6.5 C7.58333333,5.90169152 7.09830848,5.41666667 6.5,5.41666667 C5.90169152,5.41666667 5.41666667,5.90169152 5.41666667,6.5 C5.41666667,7.09830848 5.90169152,7.58333333 6.5,7.58333333 Z" id="path-1"></path>
    </defs>
    <g id="Device-Summary" stroke="none" stroke-width="1" fill="none" fill-rule="evenodd">
        <g id="View" transform="translate(-1066.000000, -532.000000)">
            <g id="settings" transform="translate(1066.000000, 532.000000)">
                <mask id="mask-2" fill="white">
                    <use xlink:href="#path-1"></use>
                </mask>
                <use id="Combined-Shape" fill="#000000" fill-rule="nonzero" xlink:href="#path-1"></use>
                <g id="COLOR/-black" mask="url(#mask-2)" fill="#000000" fill-rule="evenodd">
                    <rect id="Rectangle" x="0" y="0" width="13" height="13"></rect>
                </g>
            </g>
        </g>
    </g>
</svg>