<?xml version="1.0" encoding="UTF-8"?>
<svg width="3px" height="11px" viewBox="0 0 3 11" version="1.1" xmlns="http://www.w3.org/2000/svg">
    <!-- Generator: Sketch 49.3 (51167) - http://www.bohemiancoding.com/sketch -->
    <title>Combined Shape</title>
    <desc>Created with Sketch.</desc>
    <defs></defs>
    <g id="Device-Summary" stroke="none" stroke-width="1" fill="none" fill-rule="evenodd">
        <g id="View" transform="translate(-768.000000, -359.000000)" fill="#000000">
            <path d="M769.5,362 C768.671573,362 768,361.328427 768,360.5 C768,359.671573 768.671573,359 769.5,359 C770.328427,359 771,359.671573 771,360.5 C771,361.328427 770.328427,362 769.5,362 Z M769.5,366 C768.671573,366 768,365.328427 768,364.5 C768,363.671573 768.671573,363 769.5,363 C770.328427,363 771,363.671573 771,364.5 C771,365.328427 770.328427,366 769.5,366 Z M769.5,370 C768.671573,370 768,369.328427 768,368.5 C768,367.671573 768.671573,367 769.5,367 C770.328427,367 771,367.671573 771,368.5 C771,369.328427 770.328427,370 769.5,370 Z" id="Combined-Shape"></path>
        </g>
    </g>
</svg>